<svg xmlns="http://www.w3.org/2000/svg" viewBox="0 0 32 32"><path fill="#2768ff" d="M30.22 18.64 25.72 9.64Q25.49 9.2 25 9.2H8.5Q7.7 9.2 7.7 10V28Q7.7 28.8 8.5 28.8H25Q25.49 28.8 25.72 28.36L30.22 19.36Q30.39 19 30.22 18.64ZM19.8 19C19.8 17.78 20.78 16.8 22 16.8C23.22 16.8 24.2 17.78 24.2 19C24.2 20.22 23.22 21.2 22 21.2C20.78 21.2 19.8 20.22 19.8 19Z"/><path fill="#2768ff" fill-opacity=".5" d="M21.49 7.2 19.72 3.64Q19.49 3.2 19 3.2L2.5 3.2Q1.7 3.2 1.7 4V22Q1.7 22.8 2.5 22.8H5.7V10Q5.7 7.2 8.5 7.2L21.49 7.2Z"/></svg>
